<mxfile host="app.diagrams.net" modified="2025-08-21T08:43:00.000Z" agent="5.0" etag="xxx" version="21.6.5" type="device">
  <diagram name="YouTube Live Chat Collector - AWS Architecture" id="aws-architecture">
    <mxGraphModel dx="1422" dy="794" grid="1" gridSize="10" guides="1" tooltips="1" connect="1" arrows="1" fold="1" page="1" pageScale="1" pageWidth="1169" pageHeight="827" math="0" shadow="0">
      <root>
        <mxCell id="0" />
        <mxCell id="1" parent="0" />
        
        <!-- AWS Cloud -->
        <mxCell id="aws-cloud" value="AWS Cloud" style="sketch=0;outlineConnect=0;gradientColor=none;html=1;whiteSpace=wrap;fontSize=12;fontStyle=0;shape=mxgraph.aws4.group;grIcon=mxgraph.aws4.group_aws_cloud;strokeColor=#232F3E;fillColor=none;verticalAlign=top;align=left;spacingLeft=30;fontColor=#232F3E;dashed=0;" vertex="1" parent="1">
          <mxGeometry x="40" y="40" width="1080" height="740" as="geometry" />
        </mxCell>
        
        <!-- Region -->
        <mxCell id="region" value="ap-northeast-1" style="sketch=0;outlineConnect=0;gradientColor=none;html=1;whiteSpace=wrap;fontSize=12;fontStyle=0;shape=mxgraph.aws4.group;grIcon=mxgraph.aws4.group_region;strokeColor=#147EBA;fillColor=none;verticalAlign=top;align=left;spacingLeft=30;fontColor=#147EBA;dashed=1;" vertex="1" parent="1">
          <mxGeometry x="80" y="80" width="1000" height="660" as="geometry" />
        </mxCell>
        
        <!-- VPC -->
        <mxCell id="vpc" value="VPC (10.0.0.0/16)" style="sketch=0;outlineConnect=0;gradientColor=none;html=1;whiteSpace=wrap;fontSize=12;fontStyle=0;shape=mxgraph.aws4.group;grIcon=mxgraph.aws4.group_vpc;strokeColor=#248814;fillColor=none;verticalAlign=top;align=left;spacingLeft=30;fontColor=#248814;dashed=0;" vertex="1" parent="1">
          <mxGeometry x="120" y="120" width="920" height="580" as="geometry" />
        </mxCell>
        
        <!-- Internet Gateway -->
        <mxCell id="igw" value="Internet Gateway" style="sketch=0;outlineConnect=0;fontColor=#232F3E;gradientColor=none;fillColor=#4D27AA;strokeColor=none;dashed=0;verticalLabelPosition=bottom;verticalAlign=top;align=center;html=1;fontSize=12;fontStyle=0;aspect=fixed;pointerEvents=1;shape=mxgraph.aws4.internet_gateway;" vertex="1" parent="1">
          <mxGeometry x="540" y="140" width="78" height="78" as="geometry" />
        </mxCell>
        
        <!-- Public Subnet A -->
        <mxCell id="subnet-a" value="Public Subnet A&#xa;(10.0.1.0/24)&#xa;ap-northeast-1a" style="sketch=0;outlineConnect=0;gradientColor=none;html=1;whiteSpace=wrap;fontSize=12;fontStyle=0;shape=mxgraph.aws4.group;grIcon=mxgraph.aws4.group_security_group;strokeColor=#248814;fillColor=#E9F3E6;verticalAlign=top;align=center;spacingLeft=30;fontColor=#248814;dashed=0;" vertex="1" parent="1">
          <mxGeometry x="160" y="280" width="360" height="180" as="geometry" />
        </mxCell>
        
        <!-- Public Subnet B -->
        <mxCell id="subnet-b" value="Public Subnet B&#xa;(10.0.2.0/24)&#xa;ap-northeast-1c" style="sketch=0;outlineConnect=0;gradientColor=none;html=1;whiteSpace=wrap;fontSize=12;fontStyle=0;shape=mxgraph.aws4.group;grIcon=mxgraph.aws4.group_security_group;strokeColor=#248814;fillColor=#E9F3E6;verticalAlign=top;align=center;spacingLeft=30;fontColor=#248814;dashed=0;" vertex="1" parent="1">
          <mxGeometry x="640" y="280" width="360" height="180" as="geometry" />
        </mxCell>
        
        <!-- ECS Fargate Tasks -->
        <mxCell id="ecs-task-a" value="ECS Fargate&#xa;Comment Collector" style="sketch=0;outlineConnect=0;fontColor=#232F3E;gradientColor=none;fillColor=#ED7100;strokeColor=none;dashed=0;verticalLabelPosition=bottom;verticalAlign=top;align=center;html=1;fontSize=12;fontStyle=0;aspect=fixed;pointerEvents=1;shape=mxgraph.aws4.ecs_task;" vertex="1" parent="1">
          <mxGeometry x="200" y="360" width="78" height="78" as="geometry" />
        </mxCell>
        
        <mxCell id="ecs-task-b" value="ECS Fargate&#xa;Comment Collector" style="sketch=0;outlineConnect=0;fontColor=#232F3E;gradientColor=none;fillColor=#ED7100;strokeColor=none;dashed=0;verticalLabelPosition=bottom;verticalAlign=top;align=center;html=1;fontSize=12;fontStyle=0;aspect=fixed;pointerEvents=1;shape=mxgraph.aws4.ecs_task;" vertex="1" parent="1">
          <mxGeometry x="680" y="360" width="78" height="78" as="geometry" />
        </mxCell>
        
        <!-- Lambda Functions -->
        <mxCell id="lambda-rss" value="RSS Monitor&#xa;Lambda" style="sketch=0;outlineConnect=0;fontColor=#232F3E;gradientColor=none;fillColor=#ED7100;strokeColor=none;dashed=0;verticalLabelPosition=bottom;verticalAlign=top;align=center;html=1;fontSize=12;fontStyle=0;aspect=fixed;pointerEvents=1;shape=mxgraph.aws4.lambda_function;" vertex="1" parent="1">
          <mxGeometry x="160" y="520" width="78" height="78" as="geometry" />
        </mxCell>
        
        <mxCell id="lambda-status" value="Status Checker&#xa;Lambda" style="sketch=0;outlineConnect=0;fontColor=#232F3E;gradientColor=none;fillColor=#ED7100;strokeColor=none;dashed=0;verticalLabelPosition=bottom;verticalAlign=top;align=center;html=1;fontSize=12;fontStyle=0;aspect=fixed;pointerEvents=1;shape=mxgraph.aws4.lambda_function;" vertex="1" parent="1">
          <mxGeometry x="280" y="520" width="78" height="78" as="geometry" />
        </mxCell>
        
        <mxCell id="lambda-ecs" value="ECS Launcher&#xa;Lambda" style="sketch=0;outlineConnect=0;fontColor=#232F3E;gradientColor=none;fillColor=#ED7100;strokeColor=none;dashed=0;verticalLabelPosition=bottom;verticalAlign=top;align=center;html=1;fontSize=12;fontStyle=0;aspect=fixed;pointerEvents=1;shape=mxgraph.aws4.lambda_function;" vertex="1" parent="1">
          <mxGeometry x="400" y="520" width="78" height="78" as="geometry" />
        </mxCell>
        
        <mxCell id="lambda-api" value="API Handler&#xa;Lambda" style="sketch=0;outlineConnect=0;fontColor=#232F3E;gradientColor=none;fillColor=#ED7100;strokeColor=none;dashed=0;verticalLabelPosition=bottom;verticalAlign=top;align=center;html=1;fontSize=12;fontStyle=0;aspect=fixed;pointerEvents=1;shape=mxgraph.aws4.lambda_function;" vertex="1" parent="1">
          <mxGeometry x="520" y="520" width="78" height="78" as="geometry" />
        </mxCell>
        
        <!-- DynamoDB -->
        <mxCell id="dynamodb" value="DynamoDB" style="sketch=0;outlineConnect=0;fontColor=#232F3E;gradientColor=none;fillColor=#C925D1;strokeColor=none;dashed=0;verticalLabelPosition=bottom;verticalAlign=top;align=center;html=1;fontSize=12;fontStyle=0;aspect=fixed;pointerEvents=1;shape=mxgraph.aws4.dynamodb;" vertex="1" parent="1">
          <mxGeometry x="680" y="520" width="78" height="78" as="geometry" />
        </mxCell>
        
        <!-- API Gateway -->
        <mxCell id="api-gateway" value="API Gateway" style="sketch=0;outlineConnect=0;fontColor=#232F3E;gradientColor=none;fillColor=#FF4F8B;strokeColor=none;dashed=0;verticalLabelPosition=bottom;verticalAlign=top;align=center;html=1;fontSize=12;fontStyle=0;aspect=fixed;pointerEvents=1;shape=mxgraph.aws4.api_gateway;" vertex="1" parent="1">
          <mxGeometry x="800" y="520" width="78" height="78" as="geometry" />
        </mxCell>
        
        <!-- S3 -->
        <mxCell id="s3" value="S3 Bucket&#xa;Frontend" style="sketch=0;outlineConnect=0;fontColor=#232F3E;gradientColor=none;fillColor=#7AA116;strokeColor=none;dashed=0;verticalLabelPosition=bottom;verticalAlign=top;align=center;html=1;fontSize=12;fontStyle=0;aspect=fixed;pointerEvents=1;shape=mxgraph.aws4.s3;" vertex="1" parent="1">
          <mxGeometry x="920" y="520" width="78" height="78" as="geometry" />
        </mxCell>
        
        <!-- EventBridge -->
        <mxCell id="eventbridge" value="EventBridge" style="sketch=0;outlineConnect=0;fontColor=#232F3E;gradientColor=none;fillColor=#FF4F8B;strokeColor=none;dashed=0;verticalLabelPosition=bottom;verticalAlign=top;align=center;html=1;fontSize=12;fontStyle=0;aspect=fixed;pointerEvents=1;shape=mxgraph.aws4.eventbridge;" vertex="1" parent="1">
          <mxGeometry x="160" y="620" width="78" height="78" as="geometry" />
        </mxCell>
        
        <!-- SQS -->
        <mxCell id="sqs" value="SQS Queue" style="sketch=0;outlineConnect=0;fontColor=#232F3E;gradientColor=none;fillColor=#FF4F8B;strokeColor=none;dashed=0;verticalLabelPosition=bottom;verticalAlign=top;align=center;html=1;fontSize=12;fontStyle=0;aspect=fixed;pointerEvents=1;shape=mxgraph.aws4.sqs;" vertex="1" parent="1">
          <mxGeometry x="280" y="620" width="78" height="78" as="geometry" />
        </mxCell>
        
        <!-- Parameter Store -->
        <mxCell id="parameter-store" value="Parameter Store&#xa;YouTube API Key" style="sketch=0;outlineConnect=0;fontColor=#232F3E;gradientColor=none;fillColor=#759C3E;strokeColor=none;dashed=0;verticalLabelPosition=bottom;verticalAlign=top;align=center;html=1;fontSize=12;fontStyle=0;aspect=fixed;pointerEvents=1;shape=mxgraph.aws4.systems_manager_parameter_store;" vertex="1" parent="1">
          <mxGeometry x="400" y="620" width="78" height="78" as="geometry" />
        </mxCell>
        
        <!-- ECR -->
        <mxCell id="ecr" value="ECR Repository" style="sketch=0;outlineConnect=0;fontColor=#232F3E;gradientColor=none;fillColor=#ED7100;strokeColor=none;dashed=0;verticalLabelPosition=bottom;verticalAlign=top;align=center;html=1;fontSize=12;fontStyle=0;aspect=fixed;pointerEvents=1;shape=mxgraph.aws4.ecr;" vertex="1" parent="1">
          <mxGeometry x="520" y="620" width="78" height="78" as="geometry" />
        </mxCell>
        
        <!-- CloudWatch -->
        <mxCell id="cloudwatch" value="CloudWatch&#xa;Logs" style="sketch=0;outlineConnect=0;fontColor=#232F3E;gradientColor=none;fillColor=#759C3E;strokeColor=none;dashed=0;verticalLabelPosition=bottom;verticalAlign=top;align=center;html=1;fontSize=12;fontStyle=0;aspect=fixed;pointerEvents=1;shape=mxgraph.aws4.cloudwatch;" vertex="1" parent="1">
          <mxGeometry x="640" y="620" width="78" height="78" as="geometry" />
        </mxCell>
        
        <!-- External Services -->
        <mxCell id="youtube-api" value="YouTube Data API v3" style="sketch=0;outlineConnect=0;fontColor=#232F3E;gradientColor=none;fillColor=#232F3D;strokeColor=none;dashed=0;verticalLabelPosition=bottom;verticalAlign=top;align=center;html=1;fontSize=12;fontStyle=0;aspect=fixed;pointerEvents=1;shape=mxgraph.aws4.external_sdk;" vertex="1" parent="1">
          <mxGeometry x="200" y="40" width="78" height="78" as="geometry" />
        </mxCell>
        
        <mxCell id="youtube-chat" value="YouTube Live Chat" style="sketch=0;outlineConnect=0;fontColor=#232F3E;gradientColor=none;fillColor=#232F3D;strokeColor=none;dashed=0;verticalLabelPosition=bottom;verticalAlign=top;align=center;html=1;fontSize=12;fontStyle=0;aspect=fixed;pointerEvents=1;shape=mxgraph.aws4.external_sdk;" vertex="1" parent="1">
          <mxGeometry x="320" y="40" width="78" height="78" as="geometry" />
        </mxCell>
        
        <mxCell id="youtube-rss" value="YouTube RSS Feed" style="sketch=0;outlineConnect=0;fontColor=#232F3E;gradientColor=none;fillColor=#232F3D;strokeColor=none;dashed=0;verticalLabelPosition=bottom;verticalAlign=top;align=center;html=1;fontSize=12;fontStyle=0;aspect=fixed;pointerEvents=1;shape=mxgraph.aws4.external_sdk;" vertex="1" parent="1">
          <mxGeometry x="440" y="40" width="78" height="78" as="geometry" />
        </mxCell>
        
        <!-- User -->
        <mxCell id="user" value="User" style="sketch=0;outlineConnect=0;fontColor=#232F3E;gradientColor=none;fillColor=#232F3D;strokeColor=none;dashed=0;verticalLabelPosition=bottom;verticalAlign=top;align=center;html=1;fontSize=12;fontStyle=0;aspect=fixed;pointerEvents=1;shape=mxgraph.aws4.user;" vertex="1" parent="1">
          <mxGeometry x="920" y="40" width="78" height="78" as="geometry" />
        </mxCell>
        
        <!-- Connections -->
        
        <!-- EventBridge to Lambda -->
        <mxCell id="eb-to-rss" value="5min" style="edgeStyle=orthogonalEdgeStyle;rounded=0;orthogonalLoop=1;jettySize=auto;html=1;strokeColor=#FF6D01;strokeWidth=2;" edge="1" parent="1" source="eventbridge" target="lambda-rss">
          <mxGeometry relative="1" as="geometry" />
        </mxCell>
        
        <mxCell id="eb-to-status" value="1min" style="edgeStyle=orthogonalEdgeStyle;rounded=0;orthogonalLoop=1;jettySize=auto;html=1;strokeColor=#FF6D01;strokeWidth=2;" edge="1" parent="1" source="eventbridge" target="lambda-status">
          <mxGeometry relative="1" as="geometry" />
        </mxCell>
        
        <!-- SQS to Lambda -->
        <mxCell id="sqs-to-ecs" value="" style="edgeStyle=orthogonalEdgeStyle;rounded=0;orthogonalLoop=1;jettySize=auto;html=1;strokeColor=#FF6D01;strokeWidth=2;" edge="1" parent="1" source="sqs" target="lambda-ecs">
          <mxGeometry relative="1" as="geometry" />
        </mxCell>
        
        <!-- Lambda to SQS -->
        <mxCell id="rss-to-sqs" value="" style="edgeStyle=orthogonalEdgeStyle;rounded=0;orthogonalLoop=1;jettySize=auto;html=1;strokeColor=#147EBA;strokeWidth=2;" edge="1" parent="1" source="lambda-rss" target="sqs">
          <mxGeometry relative="1" as="geometry" />
        </mxCell>
        
        <mxCell id="status-to-sqs" value="" style="edgeStyle=orthogonalEdgeStyle;rounded=0;orthogonalLoop=1;jettySize=auto;html=1;strokeColor=#147EBA;strokeWidth=2;" edge="1" parent="1" source="lambda-status" target="sqs">
          <mxGeometry relative="1" as="geometry" />
        </mxCell>
        
        <!-- Lambda to DynamoDB -->
        <mxCell id="rss-to-dynamo" value="" style="edgeStyle=orthogonalEdgeStyle;rounded=0;orthogonalLoop=1;jettySize=auto;html=1;strokeColor=#147EBA;strokeWidth=2;" edge="1" parent="1" source="lambda-rss" target="dynamodb">
          <mxGeometry relative="1" as="geometry" />
        </mxCell>
        
        <mxCell id="status-to-dynamo" value="" style="edgeStyle=orthogonalEdgeStyle;rounded=0;orthogonalLoop=1;jettySize=auto;html=1;strokeColor=#147EBA;strokeWidth=2;" edge="1" parent="1" source="lambda-status" target="dynamodb">
          <mxGeometry relative="1" as="geometry" />
        </mxCell>
        
        <mxCell id="api-to-dynamo" value="" style="edgeStyle=orthogonalEdgeStyle;rounded=0;orthogonalLoop=1;jettySize=auto;html=1;strokeColor=#147EBA;strokeWidth=2;" edge="1" parent="1" source="lambda-api" target="dynamodb">
          <mxGeometry relative="1" as="geometry" />
        </mxCell>
        
        <!-- ECS to DynamoDB -->
        <mxCell id="ecs-to-dynamo-a" value="" style="edgeStyle=orthogonalEdgeStyle;rounded=0;orthogonalLoop=1;jettySize=auto;html=1;strokeColor=#147EBA;strokeWidth=2;" edge="1" parent="1" source="ecs-task-a" target="dynamodb">
          <mxGeometry relative="1" as="geometry" />
        </mxCell>
        
        <mxCell id="ecs-to-dynamo-b" value="" style="edgeStyle=orthogonalEdgeStyle;rounded=0;orthogonalLoop=1;jettySize=auto;html=1;strokeColor=#147EBA;strokeWidth=2;" edge="1" parent="1" source="ecs-task-b" target="dynamodb">
          <mxGeometry relative="1" as="geometry" />
        </mxCell>
        
        <!-- Lambda to Parameter Store -->
        <mxCell id="status-to-param" value="" style="edgeStyle=orthogonalEdgeStyle;rounded=0;orthogonalLoop=1;jettySize=auto;html=1;strokeColor=#147EBA;strokeWidth=2;" edge="1" parent="1" source="lambda-status" target="parameter-store">
          <mxGeometry relative="1" as="geometry" />
        </mxCell>
        
        <!-- ECS Launcher to ECS -->
        <mxCell id="launcher-to-ecs-a" value="" style="edgeStyle=orthogonalEdgeStyle;rounded=0;orthogonalLoop=1;jettySize=auto;html=1;strokeColor=#FF6D01;strokeWidth=2;" edge="1" parent="1" source="lambda-ecs" target="ecs-task-a">
          <mxGeometry relative="1" as="geometry" />
        </mxCell>
        
        <mxCell id="launcher-to-ecs-b" value="" style="edgeStyle=orthogonalEdgeStyle;rounded=0;orthogonalLoop=1;jettySize=auto;html=1;strokeColor=#FF6D01;strokeWidth=2;" edge="1" parent="1" source="lambda-ecs" target="ecs-task-b">
          <mxGeometry relative="1" as="geometry" />
        </mxCell>
        
        <!-- API Gateway to Lambda -->
        <mxCell id="apigw-to-lambda" value="" style="edgeStyle=orthogonalEdgeStyle;rounded=0;orthogonalLoop=1;jettySize=auto;html=1;strokeColor=#FF6D01;strokeWidth=2;" edge="1" parent="1" source="api-gateway" target="lambda-api">
          <mxGeometry relative="1" as="geometry" />
        </mxCell>
        
        <!-- User to S3 -->
        <mxCell id="user-to-s3" value="HTTPS" style="edgeStyle=orthogonalEdgeStyle;rounded=0;orthogonalLoop=1;jettySize=auto;html=1;strokeColor=#232F3E;strokeWidth=2;" edge="1" parent="1" source="user" target="s3">
          <mxGeometry relative="1" as="geometry" />
        </mxCell>
        
        <!-- User to API Gateway -->
        <mxCell id="user-to-apigw" value="REST API" style="edgeStyle=orthogonalEdgeStyle;rounded=0;orthogonalLoop=1;jettySize=auto;html=1;strokeColor=#232F3E;strokeWidth=2;" edge="1" parent="1" source="user" target="api-gateway">
          <mxGeometry relative="1" as="geometry" />
        </mxCell>
        
        <!-- External API connections -->
        <mxCell id="rss-to-youtube-rss" value="" style="edgeStyle=orthogonalEdgeStyle;rounded=0;orthogonalLoop=1;jettySize=auto;html=1;strokeColor=#232F3E;strokeWidth=2;" edge="1" parent="1" source="lambda-rss" target="youtube-rss">
          <mxGeometry relative="1" as="geometry" />
        </mxCell>
        
        <mxCell id="status-to-youtube-api" value="" style="edgeStyle=orthogonalEdgeStyle;rounded=0;orthogonalLoop=1;jettySize=auto;html=1;strokeColor=#232F3E;strokeWidth=2;" edge="1" parent="1" source="lambda-status" target="youtube-api">
          <mxGeometry relative="1" as="geometry" />
        </mxCell>
        
        <mxCell id="ecs-to-youtube-chat" value="pytchat" style="edgeStyle=orthogonalEdgeStyle;rounded=0;orthogonalLoop=1;jettySize=auto;html=1;strokeColor=#232F3E;strokeWidth=2;" edge="1" parent="1" source="ecs-task-a" target="youtube-chat">
          <mxGeometry relative="1" as="geometry" />
        </mxCell>
        
        <!-- Internet Gateway connections -->
        <mxCell id="igw-to-subnet-a" value="" style="edgeStyle=orthogonalEdgeStyle;rounded=0;orthogonalLoop=1;jettySize=auto;html=1;strokeColor=#248814;strokeWidth=2;" edge="1" parent="1" source="igw" target="subnet-a">
          <mxGeometry relative="1" as="geometry" />
        </mxCell>
        
        <mxCell id="igw-to-subnet-b" value="" style="edgeStyle=orthogonalEdgeStyle;rounded=0;orthogonalLoop=1;jettySize=auto;html=1;strokeColor=#248814;strokeWidth=2;" edge="1" parent="1" source="igw" target="subnet-b">
          <mxGeometry relative="1" as="geometry" />
        </mxCell>
        
        <!-- CloudWatch connections -->
        <mxCell id="lambda-to-cw" value="Logs" style="edgeStyle=orthogonalEdgeStyle;rounded=0;orthogonalLoop=1;jettySize=auto;html=1;strokeColor=#759C3E;strokeWidth=1;dashed=1;" edge="1" parent="1" source="lambda-api" target="cloudwatch">
          <mxGeometry relative="1" as="geometry" />
        </mxCell>
        
        <mxCell id="ecs-to-cw" value="Logs" style="edgeStyle=orthogonalEdgeStyle;rounded=0;orthogonalLoop=1;jettySize=auto;html=1;strokeColor=#759C3E;strokeWidth=1;dashed=1;" edge="1" parent="1" source="ecs-task-a" target="cloudwatch">
          <mxGeometry relative="1" as="geometry" />
        </mxCell>
        
        <!-- ECR to ECS -->
        <mxCell id="ecr-to-ecs" value="Container Image" style="edgeStyle=orthogonalEdgeStyle;rounded=0;orthogonalLoop=1;jettySize=auto;html=1;strokeColor=#ED7100;strokeWidth=1;dashed=1;" edge="1" parent="1" source="ecr" target="ecs-task-a">
          <mxGeometry relative="1" as="geometry" />
        </mxCell>
        
        <!-- Legend -->
        <mxCell id="legend" value="Legend" style="rounded=1;whiteSpace=wrap;html=1;fillColor=#f8cecc;strokeColor=#b85450;fontStyle=1;fontSize=14;" vertex="1" parent="1">
          <mxGeometry x="760" y="620" width="120" height="30" as="geometry" />
        </mxCell>
        
        <mxCell id="legend-trigger" value="Trigger/Invoke" style="rounded=0;whiteSpace=wrap;html=1;fillColor=none;strokeColor=#FF6D01;strokeWidth=2;fontSize=10;" vertex="1" parent="1">
          <mxGeometry x="760" y="660" width="80" height="20" as="geometry" />
        </mxCell>
        
        <mxCell id="legend-data" value="Data Flow" style="rounded=0;whiteSpace=wrap;html=1;fillColor=none;strokeColor=#147EBA;strokeWidth=2;fontSize=10;" vertex="1" parent="1">
          <mxGeometry x="760" y="690" width="80" height="20" as="geometry" />
        </mxCell>
        
        <mxCell id="legend-external" value="External API" style="rounded=0;whiteSpace=wrap;html=1;fillColor=none;strokeColor=#232F3E;strokeWidth=2;fontSize=10;" vertex="1" parent="1">
          <mxGeometry x="850" y="660" width="80" height="20" as="geometry" />
        </mxCell>
        
        <mxCell id="legend-logs" value="Logs/Monitoring" style="rounded=0;whiteSpace=wrap;html=1;fillColor=none;strokeColor=#759C3E;strokeWidth=1;dashed=1;fontSize=10;" vertex="1" parent="1">
          <mxGeometry x="850" y="690" width="80" height="20" as="geometry" />
        </mxCell>
        
      </root>
    </mxGraphModel>
  </diagram>
</mxfile>
